<svg xmlns="http://www.w3.org/2000/svg" width="900" height="520" viewBox="0 0 900 520">
  <defs>
    <linearGradient id="g" x1="0" y1="0" x2="1" y2="1"><stop stop-color="#be123c"/><stop offset="1" stop-color="#2563eb"/></linearGradient>
    <filter id="shadow" x="-20%" y="-20%" width="140%" height="140%"><feDropShadow dx="0" dy="18" stdDeviation="16" flood-color="#020617" flood-opacity="0.28"/></filter>
  </defs>
  <rect width="900" height="520" fill="#020617"/>
  <circle cx="750" cy="90" r="170" fill="url(#g)" opacity="0.25"/>
  <circle cx="120" cy="460" r="190" fill="url(#g)" opacity="0.18"/>
  <rect x="90" y="90" width="720" height="340" rx="32" fill="#0f172a" stroke="#334155" filter="url(#shadow)"/>
  <rect x="130" y="135" width="640" height="58" rx="16" fill="url(#g)" opacity="0.85"/>
  <circle cx="160" cy="164" r="8" fill="#fff" opacity="0.9"/><circle cx="185" cy="164" r="8" fill="#fff" opacity="0.65"/><circle cx="210" cy="164" r="8" fill="#fff" opacity="0.45"/>
  <rect x="130" y="230" width="180" height="120" rx="20" fill="#1e293b" stroke="#475569"/>
  <rect x="350" y="230" width="420" height="22" rx="11" fill="#64748b" opacity="0.55"/>
  <rect x="350" y="270" width="350" height="22" rx="11" fill="#64748b" opacity="0.35"/>
  <rect x="350" y="310" width="390" height="22" rx="11" fill="#64748b" opacity="0.25"/>
  <path d="M160 322 L205 278 L238 304 L279 258" stroke="url(#g)" stroke-width="12" fill="none" stroke-linecap="round" stroke-linejoin="round"/>
  <text x="130" y="395" fill="#f8fafc" font-family="Inter, Arial, sans-serif" font-size="34" font-weight="800">Aerospace Quality Analytics</text>
  <text x="130" y="430" fill="#cbd5e1" font-family="Inter, Arial, sans-serif" font-size="20" font-weight="600">Risk • Quality • Analytics</text>
</svg>