<svg width="1200" height="720" viewBox="0 0 1200 720" fill="none" xmlns="http://www.w3.org/2000/svg">
  <rect width="1200" height="720" rx="38" fill="#06111f"/>
  <circle cx="230" cy="155" r="140" fill="#2563eb" opacity="0.22"/>
  <circle cx="1030" cy="610" r="180" fill="#7c3aed" opacity="0.22"/>
  <rect x="110" y="96" width="980" height="528" rx="32" fill="#0f172a" stroke="#334155" stroke-width="2"/>
  <rect x="160" y="150" width="880" height="82" rx="18" fill="#111827" stroke="#475569"/>
  <circle cx="205" cy="191" r="14" fill="#38bdf8"/>
  <circle cx="250" cy="191" r="14" fill="#818cf8"/>
  <circle cx="295" cy="191" r="14" fill="#c084fc"/>
  <text x="160" y="310" fill="#e2e8f0" font-family="Arial, Helvetica, sans-serif" font-size="48" font-weight="700">RDBMS Analysis for Big Data</text>
  <text x="160" y="370" fill="#38bdf8" font-family="Arial, Helvetica, sans-serif" font-size="38" font-weight="700">using Elasticsearch</text>
  <rect x="160" y="425" width="220" height="34" rx="17" fill="#1e293b" stroke="#38bdf8"/>
  <text x="187" y="448" fill="#e0f2fe" font-family="Arial, Helvetica, sans-serif" font-size="18" font-weight="700">Search Architecture</text>
  <rect x="400" y="425" width="130" height="34" rx="17" fill="#1e293b" stroke="#818cf8"/>
  <text x="433" y="448" fill="#eef2ff" font-family="Arial, Helvetica, sans-serif" font-size="18" font-weight="700">Big Data</text>
  <rect x="550" y="425" width="128" height="34" rx="17" fill="#1e293b" stroke="#c084fc"/>
  <text x="584" y="448" fill="#f3e8ff" font-family="Arial, Helvetica, sans-serif" font-size="18" font-weight="700">RDBMS</text>
  <path d="M818 385C858 345 920 345 960 385C1000 425 1000 487 960 527C920 567 858 567 818 527C778 487 778 425 818 385Z" stroke="#38bdf8" stroke-width="18"/>
  <path d="M948 516L1028 596" stroke="#38bdf8" stroke-width="22" stroke-linecap="round"/>
  <path d="M792 278H1028" stroke="#475569" stroke-width="16" stroke-linecap="round"/>
  <path d="M792 318H980" stroke="#334155" stroke-width="16" stroke-linecap="round"/>
  <path d="M792 358H920" stroke="#334155" stroke-width="16" stroke-linecap="round"/>
</svg>